<?xml version="1.0" encoding="UTF-8"?>
<svg xmlns="http://www.w3.org/2000/svg" xmlns:xlink="http://www.w3.org/1999/xlink" width="40px" height="53px" viewBox="0 0 40 53" version="1.1">
<g id="surface1">
<path style=" stroke:none;fill-rule:nonzero;fill:rgb(80.784314%,21.960784%,21.960784%);fill-opacity:1;" d="M 9.167969 10.765625 C 9.167969 9.851562 9.914062 9.109375 10.832031 9.109375 L 15.832031 9.109375 C 16.75 9.109375 17.5 9.851562 17.5 10.765625 L 17.5 15.734375 C 17.5 16.644531 16.75 17.390625 15.832031 17.390625 L 10.832031 17.390625 C 9.914062 17.390625 9.167969 16.644531 9.167969 15.734375 Z M 29.167969 9.109375 C 30.082031 9.109375 30.832031 9.851562 30.832031 10.765625 L 30.832031 15.734375 C 30.832031 16.644531 30.082031 17.390625 29.167969 17.390625 L 24.167969 17.390625 C 23.25 17.390625 22.5 16.644531 22.5 15.734375 L 22.5 10.765625 C 22.5 9.851562 23.25 9.109375 24.167969 9.109375 Z M 9.167969 24.015625 C 9.167969 23.105469 9.914062 22.359375 10.832031 22.359375 L 15.832031 22.359375 C 16.75 22.359375 17.5 23.105469 17.5 24.015625 L 17.5 28.984375 C 17.5 29.894531 16.75 30.640625 15.832031 30.640625 L 10.832031 30.640625 C 9.914062 30.640625 9.167969 29.894531 9.167969 28.984375 Z M 29.167969 22.359375 C 30.082031 22.359375 30.832031 23.105469 30.832031 24.015625 L 30.832031 28.984375 C 30.832031 29.894531 30.082031 30.640625 29.167969 30.640625 L 24.167969 30.640625 C 23.25 30.640625 22.5 29.894531 22.5 28.984375 L 22.5 24.015625 C 22.5 23.105469 23.25 22.359375 24.167969 22.359375 Z M 0 6.625 C 0 2.964844 2.984375 0 6.667969 0 L 33.332031 0 C 37.011719 0 40 2.964844 40 6.625 L 40 46.375 C 40 50.027344 37.011719 53 33.332031 53 L 6.667969 53 C 2.984375 53 0 50.027344 0 46.375 Z M 5 6.625 L 5 46.375 C 5 47.285156 5.746094 48.03125 6.667969 48.03125 L 15 48.03125 L 15 41.40625 C 15 38.664062 17.238281 36.4375 20 36.4375 C 22.761719 36.4375 25 38.664062 25 41.40625 L 25 48.03125 L 33.332031 48.03125 C 34.25 48.03125 35 47.285156 35 46.375 L 35 6.625 C 35 5.710938 34.25 4.96875 33.332031 4.96875 L 6.667969 4.96875 C 5.746094 4.96875 5 5.710938 5 6.625 Z M 5 6.625 "/>
</g>
</svg>
