<svg width="17" height="22" viewBox="0 0 17 22" fill="none" xmlns="http://www.w3.org/2000/svg">
<path d="M13.6192 21.1416C12.8785 21.1416 11.838 20.8104 10.2799 19.7343C8.38519 18.4208 6.91968 17.2082 5.03524 14.8847C3.21834 12.64 2.33418 11.1867 1.09673 8.40297C-0.30123 5.25994 -0.0629236 3.61243 0.203464 2.9083C0.5207 2.06671 0.988964 1.56336 1.59422 1.06376C1.938 0.785313 2.3018 0.546622 2.68102 0.350714C2.71896 0.330542 2.75425 0.311309 2.78575 0.293952C2.97359 0.18934 3.25819 0.0312504 3.61868 0.20013C3.85927 0.311778 4.07405 0.540234 4.41026 0.950704C5.09975 1.79135 6.04197 3.66356 6.38956 4.58302C6.62294 5.20271 6.77738 5.61177 6.77776 6.07056C6.77776 6.60769 6.55919 7.02191 6.29394 7.46898C6.24423 7.55295 6.1949 7.63316 6.14708 7.71104C5.85831 8.18015 5.79494 8.31572 5.83668 8.55778C5.9213 9.04424 6.55236 10.4924 7.58945 11.7716C8.62653 13.0509 9.76418 13.7818 10.1592 13.8859C10.3634 13.9399 10.4753 13.8582 10.8669 13.4886C10.9231 13.4356 10.9808 13.3807 11.0411 13.3258C11.4456 12.9538 11.7651 12.6906 12.1894 12.6906H12.1916C12.5609 12.6906 12.877 12.8886 13.4006 13.2151C14.0837 13.641 15.6437 14.7908 16.3279 15.6441C16.6606 16.0588 16.8462 16.3234 16.9369 16.6204C17.0735 17.0674 16.9449 17.4178 16.861 17.6524C16.847 17.6913 16.8314 17.734 16.8151 17.7814C16.6554 18.2494 16.4611 18.6982 16.2349 19.1221C15.8315 19.868 15.4228 20.4455 14.7405 20.8381C14.3902 21.043 14.0068 21.1468 13.6192 21.1416V21.1416Z" fill="#DB0000"/>
</svg>
