<svg width="69" height="69" viewBox="0 0 69 69" fill="none" xmlns="http://www.w3.org/2000/svg">
<rect width="69" height="69" rx="20" fill="#FFF7E3"/>
<path d="M45.045 53.8125H24.955C20.5975 53.8125 17.0625 50.2775 17.0625 45.92V34.1425C17.0625 29.785 20.5975 26.25 24.955 26.25H45.045C49.4025 26.25 52.9375 29.785 52.9375 34.1425V36.6625C52.9375 37.38 52.3425 37.975 51.625 37.975H48.09C47.4775 37.975 46.9175 38.2025 46.515 38.6225L46.4975 38.64C46.0075 39.1125 45.78 39.76 45.8325 40.425C45.9375 41.58 47.04 42.5075 48.3 42.5075H51.625C52.3425 42.5075 52.9375 43.1025 52.9375 43.82V45.9025C52.9375 50.2775 49.4025 53.8125 45.045 53.8125ZM24.955 28.875C22.05 28.875 19.6875 31.2375 19.6875 34.1425V45.92C19.6875 48.825 22.05 51.1875 24.955 51.1875H45.045C47.95 51.1875 50.3125 48.825 50.3125 45.92V45.15H48.3C45.6575 45.15 43.4175 43.19 43.2075 40.67C43.0675 39.235 43.5925 37.8175 44.6425 36.785C45.5525 35.8575 46.7775 35.35 48.09 35.35H50.3125V34.1425C50.3125 31.2375 47.95 28.875 45.045 28.875H24.955Z" fill="#FF9900"/>
<path d="M18.375 37.03C17.6575 37.03 17.0625 36.435 17.0625 35.7175V27.7201C17.0625 25.1126 18.7075 22.75 21.14 21.8225L35.035 16.5725C36.47 16.03 38.0625 16.2226 39.305 17.0976C40.565 17.9726 41.3 19.3901 41.3 20.9126V27.5625C41.3 28.28 40.705 28.875 39.9875 28.875C39.27 28.875 38.675 28.28 38.675 27.5625V20.9126C38.675 20.2476 38.36 19.635 37.8 19.25C37.24 18.865 36.575 18.7775 35.945 19.0225L22.05 24.2725C20.6325 24.815 19.67 26.1976 19.67 27.7201V35.7175C19.6875 36.4525 19.0925 37.03 18.375 37.03Z" fill="#FF9900"/>
<path d="M48.3009 45.1503C45.6584 45.1503 43.4184 43.1903 43.2084 40.6703C43.0684 39.2178 43.5934 37.8003 44.6434 36.7678C45.5359 35.8578 46.7609 35.3503 48.0734 35.3503H51.7134C53.4459 35.4028 54.7759 36.7678 54.7759 38.4478V42.0528C54.7759 43.7328 53.4459 45.0978 51.7659 45.1503H48.3009ZM51.6784 37.9753H48.0909C47.4784 37.9753 46.9184 38.2028 46.5159 38.6228C46.0084 39.1128 45.7634 39.7778 45.8334 40.4428C45.9384 41.5978 47.0409 42.5253 48.3009 42.5253H51.7309C51.9584 42.5253 52.1684 42.3153 52.1684 42.0528V38.4478C52.1684 38.1853 51.9584 37.9928 51.6784 37.9753Z" fill="#FF9900"/>
<path d="M38.5 36.3125H26.25C25.5325 36.3125 24.9375 35.7175 24.9375 35C24.9375 34.2825 25.5325 33.6875 26.25 33.6875H38.5C39.2175 33.6875 39.8125 34.2825 39.8125 35C39.8125 35.7175 39.2175 36.3125 38.5 36.3125Z" fill="#FF9900"/>
</svg>
