<svg width="69" height="69" viewBox="0 0 69 69" fill="none" xmlns="http://www.w3.org/2000/svg">
<rect width="69" height="69" rx="20" fill="#FFF2F8"/>
<path d="M29.512 44.8949C29.3186 44.8949 29.1076 44.8422 28.9318 44.7543C27.5779 44.0686 26.4174 43.0488 25.5735 41.7828C24.8702 40.7278 24.8702 39.374 25.5735 38.319C26.4174 37.0531 27.5779 36.0333 28.9318 35.3651C29.5823 35.0311 30.3735 35.3124 30.7076 35.963C31.0417 36.6135 30.7779 37.4047 30.1098 37.7388C29.1603 38.2135 28.3515 38.9344 27.7713 39.8136C27.6658 39.9718 27.6658 40.1828 27.7713 40.3586C28.3515 41.2377 29.1603 41.9586 30.1098 42.4334C30.7604 42.7674 31.0241 43.5587 30.7076 44.2092C30.4614 44.6312 29.9867 44.8949 29.512 44.8949Z" fill="#FF007A"/>
<path d="M40.4277 44.8949C39.9354 44.8949 39.4783 44.6312 39.2497 44.174C38.9156 43.5235 39.1794 42.7323 39.8475 42.3982C40.797 41.9235 41.6058 41.2026 42.186 40.3235C42.2915 40.1652 42.2915 39.9542 42.186 39.7784C41.6058 38.8993 40.797 38.1784 39.8475 37.7036C39.197 37.3696 38.9332 36.5783 39.2497 35.9278C39.5838 35.2772 40.375 35.0135 41.0256 35.33C42.3794 36.0157 43.5399 37.0355 44.3838 38.3014C45.0872 39.3564 45.0872 40.7103 44.3838 41.7652C43.5399 43.0312 42.3794 44.051 41.0256 44.7191C40.8146 44.8422 40.6212 44.8949 40.4277 44.8949Z" fill="#FF007A"/>
<path d="M40.0599 53.6865H29.5103C19.963 53.6865 15.8838 49.6073 15.8838 40.0599V29.5103C15.8838 19.963 19.963 15.8838 29.5103 15.8838H40.0599C49.6073 15.8838 53.6865 19.963 53.6865 29.5103V40.0599C53.6865 49.6073 49.6073 53.6865 40.0599 53.6865ZM29.5103 18.5212C21.4047 18.5212 18.5212 21.4047 18.5212 29.5103V40.0599C18.5212 48.1655 21.4047 51.0491 29.5103 51.0491H40.0599C48.1655 51.0491 51.0491 48.1655 51.0491 40.0599V29.5103C51.0491 21.4047 48.1655 18.5212 40.0599 18.5212H29.5103Z" fill="#FF007A"/>
<path d="M17.6077 29.0883C16.8868 29.0883 16.289 28.4905 16.289 27.7696C16.289 27.0487 16.8692 26.4509 17.6077 26.4509L51.4016 26.4333C52.1225 26.4333 52.7203 27.0312 52.7203 27.752C52.7203 28.4729 52.1401 29.0707 51.4016 29.0707L17.6077 29.0883Z" fill="#FF007A"/>
</svg>
