<svg width="65" height="65" viewBox="0 0 65 65" fill="none" xmlns="http://www.w3.org/2000/svg">
<rect width="65" height="65" rx="20" fill="#F1F7FF"/>
<path d="M32.999 35.1665C32.7823 35.1665 32.5657 35.1165 32.3657 34.9998L17.6489 26.4831C17.0489 26.1331 16.8489 25.3664 17.1989 24.7664C17.5489 24.1664 18.2989 23.9664 18.9156 24.3164L32.999 32.4665L46.9988 24.3664C47.5988 24.0164 48.3655 24.2331 48.7155 24.8165C49.0655 25.4165 48.849 26.1831 48.2657 26.5331L33.649 34.9998C33.4323 35.0998 33.2157 35.1665 32.999 35.1665Z" fill="#2639ED"/>
<path d="M33 50.2667C32.3167 50.2667 31.75 49.7 31.75 49.0167V33.9C31.75 33.2167 32.3167 32.65 33 32.65C33.6833 32.65 34.25 33.2167 34.25 33.9V49.0167C34.25 49.7 33.6833 50.2667 33 50.2667Z" fill="#2639ED"/>
<path d="M32.9982 50.917C31.4815 50.917 30.0315 50.567 28.9315 49.9503L20.0315 45.0171C17.6148 43.6838 15.7149 40.467 15.7149 37.7003V28.267C15.7149 25.5003 17.6148 22.3004 20.0315 20.9504L28.9315 16.017C31.1982 14.7503 34.7648 14.7503 37.0482 16.017L45.9482 20.9504C48.3648 22.2837 50.2648 25.5003 50.2648 28.267V34.367C50.2648 35.0503 49.6982 35.617 49.0148 35.617C48.3315 35.617 47.7648 35.0503 47.7648 34.367V28.267C47.7648 26.4337 46.3482 24.0337 44.7482 23.1504L35.8482 18.217C34.3315 17.367 31.6815 17.367 30.1648 18.217L21.2648 23.1504C19.6482 24.0504 18.2482 26.4337 18.2482 28.267V37.7003C18.2482 39.5336 19.6648 41.9338 21.2648 42.8171L30.1648 47.7503C31.6315 48.567 34.3982 48.567 35.8482 47.7503C36.4482 47.417 37.2148 47.6338 37.5482 48.2338C37.8815 48.8338 37.6648 49.6003 37.0648 49.9336C35.9648 50.567 34.5148 50.917 32.9982 50.917Z" fill="#2639ED"/>
<path d="M45 49.9167C41.3667 49.9167 38.4167 46.9667 38.4167 43.3333C38.4167 39.7 41.3667 36.75 45 36.75C48.6333 36.75 51.5833 39.7 51.5833 43.3333C51.5833 46.9667 48.6333 49.9167 45 49.9167ZM45 39.25C42.75 39.25 40.9167 41.0833 40.9167 43.3333C40.9167 45.5833 42.75 47.4167 45 47.4167C47.25 47.4167 49.0833 45.5833 49.0833 43.3333C49.0833 41.0833 47.25 39.25 45 39.25Z" fill="#2639ED"/>
<path d="M51.3325 50.9167C51.0158 50.9167 50.6992 50.8 50.4492 50.55L48.7825 48.8834C48.2992 48.4 48.2992 47.5999 48.7825 47.1165C49.2658 46.6332 50.0658 46.6332 50.5492 47.1165L52.2158 48.7832C52.6992 49.2665 52.6992 50.0667 52.2158 50.55C51.9658 50.8 51.6492 50.9167 51.3325 50.9167Z" fill="#2639ED"/>
</svg>
