<svg width="69" height="69" viewBox="0 0 69 69" fill="none" xmlns="http://www.w3.org/2000/svg">
<rect width="69" height="69" rx="20" fill="#DEFFEE"/>
<path d="M31.693 45.7619H25.0605C24.343 45.7619 23.748 45.1669 23.748 44.4494V35.4894C23.748 33.6694 25.2355 32.1818 27.0555 32.1818H31.693C32.4105 32.1818 33.0055 32.7768 33.0055 33.4943V44.4318C33.0055 45.1668 32.4105 45.7619 31.693 45.7619ZM26.373 43.1369H30.3805V34.8244H27.0555C26.688 34.8244 26.373 35.1218 26.373 35.5068V43.1369Z" fill="#00DA71"/>
<path d="M38.3068 45.762H31.6743C30.9568 45.762 30.3618 45.167 30.3618 44.4495V27.5443C30.3618 25.7243 31.8493 24.2368 33.6693 24.2368H36.3293C38.1493 24.2368 39.6368 25.7243 39.6368 27.5443V44.4495C39.6193 45.167 39.0418 45.762 38.3068 45.762ZM33.0043 43.137H37.0118V27.5443C37.0118 27.1768 36.7143 26.8618 36.3293 26.8618H33.6693C33.3018 26.8618 32.9868 27.1593 32.9868 27.5443V43.137H33.0043Z" fill="#00DA71"/>
<path d="M44.941 45.762H38.3085C37.591 45.762 36.996 45.167 36.996 44.4495V36.4868C36.996 35.7693 37.591 35.1743 38.3085 35.1743H42.946C44.766 35.1743 46.2535 36.6618 46.2535 38.4818V44.4495C46.2535 45.167 45.676 45.762 44.941 45.762ZM39.621 43.137H43.6285V38.4818C43.6285 38.1143 43.331 37.7993 42.946 37.7993H39.621V43.137Z" fill="#00DA71"/>
<path d="M40.25 53.8125H29.75C20.2475 53.8125 16.1875 49.7525 16.1875 40.25V29.75C16.1875 20.2475 20.2475 16.1875 29.75 16.1875H40.25C49.7525 16.1875 53.8125 20.2475 53.8125 29.75V40.25C53.8125 49.7525 49.7525 53.8125 40.25 53.8125ZM29.75 18.8125C21.6825 18.8125 18.8125 21.6825 18.8125 29.75V40.25C18.8125 48.3175 21.6825 51.1875 29.75 51.1875H40.25C48.3175 51.1875 51.1875 48.3175 51.1875 40.25V29.75C51.1875 21.6825 48.3175 18.8125 40.25 18.8125H29.75Z" fill="#00DA71"/>
</svg>
